<svg xmlns="http://www.w3.org/2000/svg" width="256" height="256" viewBox="0 0 24 24" fill="#000000"><path fill="#000000" fill-rule="evenodd" d="M5 1a4 4 0 0 0-4 4v14a4 4 0 0 0 4 4h14a4 4 0 0 0 4-4V5a4 4 0 0 0-4-4zm1.886 3.776a.5.5 0 0 1 .447-.276h7a.5.5 0 0 1 .443.268l3.665 6.997a.5.5 0 0 1 .059.225v.027a.5.5 0 0 1-.059.219l-3.665 6.996a.5.5 0 0 1-.443.268h-7a.5.5 0 0 1-.447-.276l-1.333-2.667a.5.5 0 0 1 .277-.694l3.1-1.12l-2.6-2.374a.5.5 0 0 1 0-.738l2.6-2.375l-3.1-1.12a.5.5 0 0 1-.277-.693zm4.947 5.529L16.528 12l-4.695 1.695zm-1-.361v4.112l-.84.304L7.408 12l2.585-2.36zM7.643 18.5l-.834-1.667h4.41l1.825 1.667zm9.027-5.04l-4.476 2.91l1.997 1.823zm-2.479-7.653l2.48 4.732l-4.477-2.909zM13.044 5.5L11.22 7.167H6.81L7.642 5.5z" clip-rule="evenodd"/></svg>